# xmcd
#
# Track frame offsets: 
#        150
#        23687
#        44650
#        59320
#        73800
#        86837
#        99325
#        113675
#        131452
#        146012
#        166725
#
# Disc length: 2389 seconds
#
# Revision: 1
# Processed by: cddbd v1.5.2PL0 Copyright (c) Steve Scherf et al.
# Submitted via: ExactAudioCopy v0.99pb4
#
DISCID=9309530b
DTITLE=Bluesbreakers - News
DYEAR=1900
DGENRE=Blues
TTITLE0=Satisfies My Soul
TTITLE1=Your Turn To Cry
TTITLE2=High Voltage
TTITLE3=Yellow Moon
TTITLE4=Weight Problems
TTITLE5=I Hear You Calling
TTITLE6=Feeling Fine
TTITLE7=Trouble In Your Heart
TTITLE8=Out In The Streets
TTITLE9=Walls
TTITLE10=For You
EXTD=
EXTT0=
EXTT1=
EXTT2=
EXTT3=
EXTT4=
EXTT5=
EXTT6=
EXTT7=
EXTT8=
EXTT9=
EXTT10=
PLAYORDER=
